<svg xmlns="http://www.w3.org/2000/svg" viewBox="106.8 322.3 867.8 435.4">
  <path transform="matrix(1,0,0,-1,858.2011,752.6897)" d="M0 0H-468.752C-472.459 0-475.463 3.005-475.463 6.711V334.049C-475.463 356.16-471.066 373.133-462.258 384.957-452.528 396.772-442.103 405.925-430.982 412.413-418.57 418.842-403.881 423.018-386.904 424.951-386.637 424.982-386.365 424.997-386.096 424.997H-200.218C-195.36 424.997-192.111 419.994-194.088 415.556L-217.403 363.198C-218.481 360.777-220.883 359.217-223.534 359.217H-386.739C-390.446 359.217-393.45 356.213-393.45 352.506V252.066C-393.45 248.373-390.466 245.374-386.773 245.355L-283.337 244.838C-278.385 244.813-275.165 239.617-277.346 235.171L-302.2 184.507C-303.327 182.209-305.665 180.752-308.225 180.752H-386.739C-390.446 180.752-393.45 177.748-393.45 174.041V81.071C-393.45 77.365-390.446 74.361-386.739 74.361H-25.687C-22.988 74.361-20.551 72.744-19.503 70.256L6.184 9.317C8.049 4.894 4.801 0 0 0" fill="#231f20"/>
  <path transform="matrix(1,0,0,-1,608.6487,492.46943)" d="M0 0 70.915 160.515C72.06 163.105 74.625 164.776 77.456 164.776H171.689C174.525 164.776 177.093 163.101 178.235 160.505L358.905-250.19C360.984-254.916 357.522-260.22 352.359-260.22H282.557C279.69-260.22 277.101-258.509 275.977-255.871L132.849 80.22C130.386 86.004 122.196 86.024 119.704 80.253L83.341-3.976C82.666-5.539 81.121-6.547 79.418-6.534L3.843-5.949C.795-5.925-1.232-2.788 0 0M43.877-95.385 10.294-173.173C9.163-175.793 6.582-177.49 3.728-177.49L-67.436-177.487C-72.604-177.487-76.066-172.173-73.977-167.446L-40.506-91.684C-39.766-90.01-38.108-88.93-36.277-88.93H39.633C42.957-88.93 45.195-92.333 43.877-95.385" fill="#231f20"/>
  <path transform="matrix(1,0,0,-1,367.6535,523.5733)" d="M0 0-125.069-142.286C-128.994-146.752-125.855-153.764-119.909-153.81L-5.441-154.703C-1.629-154.732 1.446-157.831 1.446-161.644V-222.175C1.446-226.009-1.662-229.116-5.495-229.116H-248.878C-252.702-229.116-255.83-226.022-255.82-222.198-255.783-208.249-254.6-195.78-252.273-184.787-249.577-172.014-244.944-158.76-238.376-145.032-231.816-132.832-224.578-121.866-216.661-112.142-208.754-102.418-199.779-92.98-189.735-83.828-182.786-76.964-172.942-67.151-160.203-54.37-147.465-41.598-133.567-27.486-118.511-12.042-103.455 3.402-88.111 19.132-72.477 35.148-56.842 51.164-42.655 65.839-29.915 79.192-20.056 89.52-11.529 98.423-4.328 105.898-2.172 108.136 1.604 106.588 1.582 103.481L.856 2.246C.85 1.419 .546 .621 0 0" fill="#231f20"/>
  <path transform="matrix(1,0,0,-1,370.697,327.693)" d="M0 0-144.905 .054C-149.467 .056-153.165-3.642-153.165-8.203V-67.113C-153.165-71.672-149.47-75.369-144.911-75.37L-2.805-75.423C-1.266-75.424 .009-74.211 .07-72.673 1.645-32.707 30.277-13.318 47.078-5.073 49.813-3.732 48.833 .389 45.787 .383Z" fill="#231f20"/>
</svg>